<svg width="1024" height="1024" viewBox="0 0 1024 1024" xmlns="http://www.w3.org/2000/svg" role="img" aria-label="Git Warden">
  <title>Git Warden</title>
  <desc>A warden's shield guarding a Git branch.</desc>
  <defs>
    <linearGradient id="gwShield" x1="0" y1="0" x2="0" y2="1">
      <stop offset="0" stop-color="#818cf8"/>
      <stop offset="0.55" stop-color="#6366f1"/>
      <stop offset="1" stop-color="#3b82f6"/>
    </linearGradient>
  </defs>
  <rect x="100" y="100" width="824" height="824" rx="210" fill="#17151f"/>
  <rect x="101" y="101" width="822" height="822" rx="209" fill="none" stroke="#2a2740" stroke-width="2"/>
  <g transform="translate(189,187) scale(1.26)">
    <path d="M256 44 C338 78 388 86 424 90 L424 250 C424 356 354 432 256 472 C158 432 88 356 88 250 L88 90 C124 86 174 78 256 44 Z" fill="url(#gwShield)"/>
    <path d="M304 232 C304 300 212 270 212 306" fill="none" stroke="#ffffff" stroke-width="24" stroke-linecap="round"/>
    <line x1="212" y1="190" x2="212" y2="352" stroke="#ffffff" stroke-width="26" stroke-linecap="round"/>
    <circle cx="212" cy="190" r="30" fill="#ffffff"/>
    <circle cx="212" cy="352" r="30" fill="#ffffff"/>
    <circle cx="304" cy="206" r="30" fill="#ffffff"/>
    <circle cx="212" cy="190" r="13" fill="#4f46e5"/>
    <circle cx="212" cy="352" r="13" fill="#3b82f6"/>
    <circle cx="304" cy="206" r="13" fill="#6366f1"/>
  </g>
</svg>
